<svg width="31" height="21" viewBox="0 0 31 21" fill="none" xmlns="http://www.w3.org/2000/svg">
<path d="M12.4896 20.435C12.8877 20.0583 13.0787 19.6031 13.0628 19.0695C13.0469 18.5359 12.8392 18.0807 12.4398 17.704L6.81704 12.3834H29.0096C29.5736 12.3834 30.0466 12.2026 30.4288 11.841C30.8109 11.4794 31.0013 11.0324 31 10.5C31 9.96637 30.8089 9.51874 30.4268 9.15713C30.0446 8.79551 29.5722 8.61534 29.0096 8.61659H6.81704L12.4896 3.24888C12.8877 2.8722 13.0867 2.42457 13.0867 1.90601C13.0867 1.38744 12.8877 0.940448 12.4896 0.565022C12.0915 0.18834 11.6185 0 11.0705 0C10.5224 0 10.0501 0.18834 9.65331 0.565022L0.547386 9.18161C0.348349 9.36996 0.207029 9.57399 0.123434 9.79372C0.0398388 10.0135 -0.00129509 10.2489 3.24249e-05 10.5C3.24249e-05 10.7511 0.041832 10.9865 0.125427 11.2063C0.209023 11.426 0.349676 11.63 0.547386 11.8184L9.70307 20.4821C10.068 20.8274 10.5238 21 11.0705 21C11.6171 21 12.0902 20.8117 12.4896 20.435Z" fill="#6A87F3"/>
</svg>
