<svg width="21" height="20" viewBox="0 0 21 20" fill="none" xmlns="http://www.w3.org/2000/svg">
<circle cx="10.5759" cy="9.94118" r="9.94118" fill="#6A87F3"/>
<path d="M5.97153 14.6501C5.65498 14.6501 5.3839 14.5348 5.15829 14.304C4.93268 14.0733 4.82007 13.7962 4.82045 13.4729V6.40942C4.82045 6.08568 4.93326 5.80844 5.15887 5.5777C5.38448 5.34696 5.65537 5.23179 5.97153 5.23218H15.1802C15.4967 5.23218 15.7678 5.34755 15.9934 5.57829C16.2191 5.80903 16.3317 6.08607 16.3313 6.40942V13.4729C16.3313 13.7966 16.2185 14.0739 15.9929 14.3046C15.7673 14.5354 15.4964 14.6505 15.1802 14.6501H5.97153ZM10.5759 10.5298L5.97153 7.58667V13.4729H15.1802V7.58667L10.5759 10.5298ZM10.5759 9.35253L15.1802 6.40942H5.97153L10.5759 9.35253ZM5.97153 7.58667V6.40942V13.4729V7.58667Z" fill="#F8F8F8"/>
</svg>
