<svg width="25" height="28" viewBox="0 0 25 28" fill="none" xmlns="http://www.w3.org/2000/svg">
<path d="M23.09 7.88889H1.91C1.53604 7.88889 1.17741 8.06496 0.912979 8.37835C0.648553 8.69174 0.5 9.1168 0.5 9.56V25.7733C0.5 26.2165 0.648553 26.6416 0.912979 26.955C1.17741 27.2684 1.53604 27.4444 1.91 27.4444H23.09C23.464 27.4444 23.8226 27.2684 24.087 26.955C24.3514 26.6416 24.5 26.2165 24.5 25.7733V9.56C24.5 9.1168 24.3514 8.69174 24.087 8.37835C23.8226 8.06496 23.464 7.88889 23.09 7.88889ZM23 25.6667H2V9.66667H23V25.6667Z" fill="#494949"/>
<path d="M6.60881 16.2889C7.13622 16.2889 7.65179 16.1325 8.09033 15.8395C8.52886 15.5465 8.87065 15.13 9.07248 14.6427C9.27432 14.1554 9.32713 13.6193 9.22423 13.102C9.12134 12.5847 8.86736 12.1095 8.49442 11.7366C8.12148 11.3637 7.64633 11.1097 7.12905 11.0068C6.61176 10.9039 6.07559 10.9567 5.58832 11.1585C5.10105 11.3604 4.68457 11.7022 4.39155 12.1407C4.09854 12.5792 3.94214 13.0948 3.94214 13.6222C3.94214 14.3295 4.22309 15.0077 4.72319 15.5078C5.22328 16.0079 5.90156 16.2889 6.60881 16.2889ZM6.60881 12.2C6.8915 12.1929 7.16989 12.2703 7.4084 12.4222C7.64691 12.5741 7.83473 12.7937 7.94784 13.0529C8.06096 13.312 8.09425 13.5991 8.04345 13.8772C7.99266 14.1554 7.86008 14.4122 7.66267 14.6146C7.46526 14.8171 7.21197 14.9561 6.93516 15.014C6.65835 15.0718 6.37059 15.0458 6.10863 14.9392C5.84668 14.8327 5.62242 14.6505 5.46452 14.4159C5.30661 14.1813 5.22223 13.905 5.22214 13.6222C5.22202 13.2511 5.36697 12.8946 5.62605 12.6289C5.88513 12.3632 6.23781 12.2093 6.60881 12.2Z" fill="#494949"/>
<path d="M4.92494 23.8889L9.42494 18.5556L11.8099 21.3822L9.69494 23.8889H11.1949L16.7899 17.2578L21.4999 22.7956V21.0178L17.1499 15.8889C17.0502 15.7716 16.9154 15.7059 16.7749 15.7059C16.6345 15.7059 16.4997 15.7716 16.3999 15.8889L12.5299 20.4756L9.77744 17.2222C9.67771 17.105 9.54292 17.0392 9.40244 17.0392C9.26196 17.0392 9.12718 17.105 9.02744 17.2222L3.43994 23.8889H4.92494Z" fill="#494949"/>
<path d="M21.605 1.66667C21.605 1.43092 21.526 1.20483 21.3853 1.03813C21.2447 0.871429 21.0539 0.777779 20.855 0.777779H4.35498C4.15607 0.777779 3.9653 0.871429 3.82465 1.03813C3.684 1.20483 3.60498 1.43092 3.60498 1.66667V2.55556H21.605V1.66667Z" fill="#494949"/>
<path d="M23.0898 5.22222C23.0898 4.98647 23.0108 4.76038 22.8702 4.59368C22.7295 4.42698 22.5388 4.33333 22.3398 4.33333H2.83984C2.64093 4.33333 2.45017 4.42698 2.30951 4.59368C2.16886 4.76038 2.08984 4.98647 2.08984 5.22222V6.11111H23.0898V5.22222Z" fill="#494949"/>
</svg>
