<svg xmlns="http://www.w3.org/2000/svg" viewBox="0 0 500 500"><defs><style>.a{fill:#0b0b0c;}</style></defs><path class="a" d="M449,.5H50.18A49.23,49.23,0,0,0,1,49.68v71.65a17.7,17.7,0,1,0,35.4,0V49.68A13.79,13.79,0,0,1,50.18,35.9H449a13.79,13.79,0,0,1,13.78,13.78V285a159.6,159.6,0,0,0-111.6,40.68l-28.28-28.28c-.09-.1-.2-.2-.31-.3-23-21.91-49.62-39.2-77-50-32.57-12.87-64.25-16-94.12-9.36-12.41,2.77-25.36,7.16-40.78,13.81A516.82,516.82,0,0,0,36.4,291.67V205.23a17.7,17.7,0,1,0-35.4,0V450.82A49.23,49.23,0,0,0,50.18,500H449a49.23,49.23,0,0,0,49.18-49.18V49.68A49.23,49.23,0,0,0,449,.5Zm13.78,319.91V437.26l-86.53-86.53A125.36,125.36,0,0,1,462.79,320.41ZM50.18,464.6A13.79,13.79,0,0,1,36.4,450.82V334.33c30.14-21.09,59.82-38,88.33-50.29,13.33-5.76,24.26-9.48,34.43-11.76,51.35-11.44,105.37,18.45,138.88,50.29l142,142Z"/><path class="a" d="M432.29,175.58a17.74,17.74,0,0,0-16.3-7,57,57,0,0,1-7.08.43,59.3,59.3,0,0,1-54.52-82.53A17.69,17.69,0,0,0,336,62,94.66,94.66,0,1,0,434.4,193.16,17.63,17.63,0,0,0,432.29,175.58Zm-85,39.65a59.27,59.27,0,0,1-33-108.47c0,1,0,2,0,3a94.85,94.85,0,0,0,71.08,91.7A59.26,59.26,0,0,1,347.34,215.23Z"/></svg>