<svg width="24" height="28" viewBox="0 0 24 28" fill="none" xmlns="http://www.w3.org/2000/svg">
<path opacity="0.9" d="M2.5 8.5L2.17157 8.82843C1.59351 9.40649 1.30448 9.69552 1.15224 10.0631C1 10.4306 1 10.8394 1 11.6569V22.5C1 24.3856 1 25.3284 1.58579 25.9142C2.17157 26.5 3.11438 26.5 5 26.5H10.5M7.5 22V21.25C7.5 19.6063 7.5 18.7844 7.95398 18.2312C8.03709 18.1299 8.12995 18.0371 8.23121 17.954C8.78439 17.5 9.60626 17.5 11.25 17.5V17.5C12.8937 17.5 13.7156 17.5 14.2688 17.954C14.3701 18.0371 14.4629 18.1299 14.546 18.2312C15 18.7844 15 19.6063 15 21.25V22.5C15 24.3856 15 25.3284 15.5858 25.9142C16.1716 26.5 17.1144 26.5 19 26.5V26.5C20.8856 26.5 21.8284 26.5 22.4142 25.9142C23 25.3284 23 24.3856 23 22.5V11.9489C23 10.9917 23 10.5131 22.7979 10.0984C22.5959 9.68374 22.219 9.38879 21.4652 8.79888L14.0208 2.97278C12.8121 2.02687 12.2078 1.55391 11.5061 1.56152C10.8044 1.56913 10.2105 2.05507 9.02259 3.02697L6 5.5" stroke="#191919" stroke-width="2"/>
</svg>
