<svg width="21" height="20" viewBox="0 0 21 20" fill="none" xmlns="http://www.w3.org/2000/svg">
<circle cx="10.8979" cy="9.94118" r="9.94118" fill="#6A87F3"/>
<path d="M8.48058 4.18579H13.3151C15.1569 4.18579 16.6533 5.6822 16.6533 7.52393V12.3585C16.6533 13.2438 16.3016 14.0929 15.6756 14.7189C15.0495 15.3449 14.2005 15.6966 13.3151 15.6966H8.48058C6.63885 15.6966 5.14244 14.2002 5.14244 12.3585V7.52393C5.14244 6.6386 5.49414 5.78953 6.12016 5.16351C6.74618 4.53749 7.59525 4.18579 8.48058 4.18579ZM8.36548 5.33687C7.81596 5.33687 7.28895 5.55517 6.90038 5.94374C6.51182 6.3323 6.29352 6.85931 6.29352 7.40883V12.4736C6.29352 13.6189 7.22015 14.5455 8.36548 14.5455H13.4302C13.9798 14.5455 14.5068 14.3273 14.8953 13.9387C15.2839 13.5501 15.5022 13.0231 15.5022 12.4736V7.40883C15.5022 6.2635 14.5756 5.33687 13.4302 5.33687H8.36548ZM13.9195 6.20019C14.1103 6.20019 14.2932 6.27598 14.4282 6.4109C14.5631 6.54582 14.6389 6.72881 14.6389 6.91961C14.6389 7.11042 14.5631 7.29341 14.4282 7.42833C14.2932 7.56325 14.1103 7.63904 13.9195 7.63904C13.7287 7.63904 13.5457 7.56325 13.4107 7.42833C13.2758 7.29341 13.2 7.11042 13.2 6.91961C13.2 6.72881 13.2758 6.54582 13.4107 6.4109C13.5457 6.27598 13.7287 6.20019 13.9195 6.20019ZM10.8979 7.0635C11.6611 7.0635 12.393 7.36669 12.9327 7.90636C13.4724 8.44604 13.7756 9.17799 13.7756 9.94121C13.7756 10.7044 13.4724 11.4364 12.9327 11.9761C12.393 12.5157 11.6611 12.8189 10.8979 12.8189C10.1346 12.8189 9.40269 12.5157 8.86301 11.9761C8.32334 11.4364 8.02015 10.7044 8.02015 9.94121C8.02015 9.17799 8.32334 8.44604 8.86301 7.90636C9.40269 7.36669 10.1346 7.0635 10.8979 7.0635ZM10.8979 8.21458C10.4399 8.21458 10.0008 8.3965 9.67695 8.7203C9.35315 9.04411 9.17123 9.48328 9.17123 9.94121C9.17123 10.3991 9.35315 10.8383 9.67695 11.1621C10.0008 11.4859 10.4399 11.6678 10.8979 11.6678C11.3558 11.6678 11.795 11.4859 12.1188 11.1621C12.4426 10.8383 12.6245 10.3991 12.6245 9.94121C12.6245 9.48328 12.4426 9.04411 12.1188 8.7203C11.795 8.3965 11.3558 8.21458 10.8979 8.21458Z" fill="#F8F8F8"/>
</svg>
