<svg width="21" height="20" viewBox="0 0 21 20" fill="none" xmlns="http://www.w3.org/2000/svg">
<circle cx="10.7369" cy="9.94118" r="9.94118" fill="#6A87F3"/>
<path d="M8.22397 5.34902C8.22382 5.65737 8.108 5.95303 7.90197 6.17096C7.69594 6.38889 7.41659 6.51124 7.12537 6.51108C6.83415 6.51093 6.55492 6.38829 6.3491 6.17014C6.14328 5.95199 6.02773 5.65621 6.02787 5.34786C6.02802 5.0395 6.14385 4.74384 6.34987 4.52591C6.5559 4.30798 6.83525 4.18564 7.12647 4.18579C7.41769 4.18595 7.69693 4.30859 7.90275 4.52673C8.10857 4.74488 8.22412 5.04067 8.22397 5.34902ZM8.25691 7.37202H6.06082V14.6502H8.25691V7.37202ZM11.7267 7.37202H9.54163V14.6502H11.7048V10.8309C11.7048 8.70325 14.3236 8.5056 14.3236 10.8309V14.6502H16.4923V10.0403C16.4923 6.45353 12.6162 6.58724 11.7048 8.34865L11.7267 7.37202Z" fill="#F8F8F8"/>
</svg>
