<svg xmlns="http://www.w3.org/2000/svg" viewBox="0 0 500 500"><defs><style>.a{fill:#0b0b0c;}</style></defs><path class="a" d="M172.68,500H102.74A75.83,75.83,0,0,1,27,424.26V76A75.82,75.82,0,0,1,102.74.31h246A75.81,75.81,0,0,1,424.47,76V194.26a19.37,19.37,0,1,1-38.73,0V76a37,37,0,0,0-37-37h-246a37,37,0,0,0-37,37V424.26a37,37,0,0,0,37,37h69.94a19.37,19.37,0,0,1,0,38.74Z"/><path class="a" d="M327.63,154.74H123.84a19.37,19.37,0,0,1,0-38.74H327.63a19.37,19.37,0,0,1,0,38.74Z"/><path class="a" d="M327.63,233.89H123.84a19.37,19.37,0,1,1,0-38.73H327.63a19.37,19.37,0,1,1,0,38.73Z"/><path class="a" d="M245.11,313.05H123.84a19.37,19.37,0,1,1,0-38.73H245.11a19.37,19.37,0,0,1,0,38.73Z"/><path class="a" d="M456.52,285.21a57.31,57.31,0,0,0-80.94,0L271.19,389.6a31.24,31.24,0,0,0-7.63,12.61l-22,70.71A19.72,19.72,0,0,0,266,497.76l75.6-22.05a30.48,30.48,0,0,0,13.14-7.78l80.73-80.72,21.06-21a57.25,57.25,0,0,0,0-81Zm-54.73,26.21A20.17,20.17,0,1,1,430.32,340l-8,8-28.53-28.53ZM329.67,440.6,290.51,452a2.23,2.23,0,0,1-2.75-2.81l10.74-34.5,69.13-69.14,28.53,28.54Z"/></svg>