<svg width="21" height="20" viewBox="0 0 21 20" fill="none" xmlns="http://www.w3.org/2000/svg">
<circle cx="10.4149" cy="9.94118" r="9.94118" fill="#6A87F3"/>
<path d="M7.81039 9.30806C8.64754 10.7888 9.99629 11.9974 11.6415 12.7561L12.9205 11.605C13.0775 11.4637 13.31 11.4166 13.5135 11.4794C14.1646 11.673 14.868 11.7777 15.5889 11.7777C15.9087 11.7777 16.1703 12.0131 16.1703 12.3009V14.1269C16.1703 14.4147 15.9087 14.6501 15.5889 14.6501C10.13 14.6501 5.70588 10.6684 5.70588 5.7554C5.70588 5.46763 5.96749 5.23218 6.28724 5.23218H8.32198C8.64173 5.23218 8.90334 5.46763 8.90334 5.7554C8.90334 6.40942 9.01961 7.03729 9.23471 7.62329C9.29866 7.80642 9.25215 8.01048 9.08937 8.15698L7.81039 9.30806Z" fill="#F8F8F8"/>
</svg>
