<svg width="20" height="20" viewBox="0 0 20 20" fill="none" xmlns="http://www.w3.org/2000/svg">
<circle cx="10.0589" cy="9.94118" r="9.94118" fill="#6A87F3"/>
<path d="M15.1055 4.89153C14.5066 4.28959 13.7932 3.81232 13.007 3.48757C12.2208 3.16282 11.3774 2.99709 10.5261 3.00004C6.9593 3.00004 4.05226 5.89253 4.05226 9.44152C4.05226 10.579 4.35276 11.684 4.91457 12.659L4 16L7.42965 15.103C8.37688 15.6165 9.44171 15.8895 10.5261 15.8895C14.093 15.8895 17 12.997 17 9.44802C17 7.72552 16.3271 6.10703 15.1055 4.89153ZM10.5261 14.7975C9.5593 14.7975 8.61206 14.5375 7.78241 14.05L7.58643 13.933L5.54824 14.466L6.09045 12.49L5.9598 12.2885C5.42265 11.435 5.13743 10.4485 5.13668 9.44152C5.13668 6.49053 7.55377 4.08554 10.5196 4.08554C11.9568 4.08554 13.309 4.64453 14.3216 5.65853C14.823 6.15511 15.2203 6.74576 15.4906 7.39625C15.7608 8.04675 15.8986 8.74414 15.896 9.44802C15.909 12.399 13.492 14.7975 10.5261 14.7975ZM13.4789 10.7935C13.3156 10.7155 12.5186 10.3255 12.3749 10.267C12.2246 10.215 12.1201 10.189 12.009 10.345C11.898 10.5075 11.591 10.8715 11.4995 10.9755C11.408 11.086 11.31 11.099 11.1467 11.0145C10.9834 10.9365 10.4608 10.761 9.84673 10.215C9.36332 9.78602 9.04322 9.25952 8.94523 9.09702C8.85377 8.93452 8.93216 8.85002 9.01708 8.76552C9.08894 8.69402 9.1804 8.57702 9.25879 8.48602C9.33719 8.39502 9.36985 8.32352 9.42211 8.21952C9.47437 8.10902 9.44824 8.01802 9.40904 7.94002C9.36985 7.86202 9.04321 7.06903 8.91256 6.74403C8.78191 6.43203 8.64472 6.47103 8.54673 6.46453H8.23316C8.12211 6.46453 7.95226 6.50353 7.80201 6.66603C7.65829 6.82853 7.2402 7.21853 7.2402 8.01152C7.2402 8.80452 7.82161 9.57152 7.9 9.67552C7.97839 9.78602 9.04322 11.411 10.6633 12.1065C11.0487 12.2755 11.3492 12.373 11.5844 12.4445C11.9698 12.568 12.3226 12.5485 12.6035 12.5095C12.9171 12.464 13.5638 12.1195 13.6945 11.7425C13.8317 11.3655 13.8317 11.047 13.7859 10.9755C13.7402 10.904 13.6422 10.8715 13.4789 10.7935Z" fill="#F8F8F8"/>
</svg>
