<svg width="314" height="73" viewBox="0 0 314 73" fill="none" xmlns="http://www.w3.org/2000/svg">
<path opacity="0.6" fill-rule="evenodd" clip-rule="evenodd" d="M52.3901 67.6595C62.8502 61.3964 69.8897 49.674 69.8897 36.2462C69.8897 23.3741 63.4208 12.0692 53.6711 5.63829H282.989C300.116 5.63829 314 19.5222 314 36.6489C314 53.7756 300.116 67.6595 282.989 67.6595H52.3901ZM52.3901 67.6595C47.2564 70.7335 41.2986 72.4923 34.9449 72.4923C15.6453 72.4923 0 56.2644 0 36.2462C0 16.228 15.6453 0 34.9449 0C41.8345 0 48.2584 2.06804 53.6711 5.63829H39.6487C22.522 5.63829 8.63803 19.5222 8.63803 36.6489C8.63803 53.7756 22.5219 67.6595 39.6486 67.6595H52.3901Z" fill="#41A1D9"/>
</svg>
